<?xml version="1.0" encoding="UTF-8"?>
<svg xmlns="http://www.w3.org/2000/svg" viewBox="0 0 1897 632" width="1897" height="632">
  <path d="M244.76 365.5C251.59 366.88 259.36 365.61 266.48 366.29C277.86 367.38 288.79 370.43 299.69 373.72C312.82 377.69 334.36 384.6 340.32 398.21C341.7 401.36 342.41 405.12 343.01 408.5C344.83 418.66 343.94 429.31 343.1 439.5C341.19 462.74 336.28 487.51 322.09 506.62C313.91 517.64 302.62 525.55 288.25 523.41C283.49 522.7 278.31 522.38 276.26 517.5C277.71 512.02 282.08 507.26 284.6 502.16C293.4 484.33 301.53 456.92 295.5 437.38C293.1 439.53 292.71 443.08 291.57 446.11C289.29 452.13 286.96 458.17 284.58 464.15C278.61 479.15 268.69 497.32 256.8 508.3C250.13 514.46 243.85 514.32 235.53 511.94C231.46 510.77 227.19 509.68 225.49 505.5C226.41 500.01 234.37 494.08 237.51 489.03C245.22 476.67 250.61 463.64 253.98 449.5C255.43 443.42 256.8 436.79 255.5 430.67C250.46 436.01 247.61 444 243.9 450.38C235.37 465.03 225.39 480.76 212.15 491.62C208.93 494.26 206.14 497.35 202 498.5C194.77 500.5 181.86 495.78 177.72 489.5C179.03 482.86 188.6 478.55 193.09 473.6C201.75 464.03 208.41 452.5 213.03 440.51C214.79 435.94 216.95 431.77 216.5 426.83C210.64 430.74 206.9 438.45 202.35 443.84C192.76 455.2 177.02 470.89 163.26 476.73C153.89 480.71 146.16 476.38 138.98 470.52C135.7 467.83 132.02 464.22 133.1 459.57C134.12 455.15 144.15 451.6 147.92 449.42C159.21 442.93 169.13 433.95 177.93 424.42C190.44 410.89 200.7 395.14 209.47 378.98C218.69 361.99 227.62 344.77 241.55 331.06C248.83 323.89 257.48 317.55 266.85 313.4C272.7 310.81 279.12 309.95 284.96 307.5C291.45 289.86 296.11 271.49 302.29 253.73C311.15 228.26 319.13 202.36 327.26 176.68C331.37 163.72 333.53 146.42 348.45 141.84C352.32 140.65 356.25 140.43 360.21 141.4C362.92 142.06 365.28 143.38 367.52 145C383.49 156.53 374.07 171.4 369.54 186.08C360.52 215.28 350.89 244.47 340.74 273.3C336.46 285.48 331.42 297.9 328.58 310.5C331.18 312.2 334.09 313.12 336.78 314.68C346.38 320.25 355.77 327.05 362.42 336.09C375.27 353.57 379.25 374.24 382.46 395.17C383.95 404.94 385.65 414.7 387.02 424.5C391.13 453.9 393.98 484.66 410.1 510.38C431.79 544.99 478.65 545.78 508.67 522.13C512.05 519.46 515.35 516.98 518.13 513.65C524.09 506.55 529.55 499.32 533.3 490.76C551.83 448.45 530.93 412.35 510.32 376.21C506.03 368.68 502.57 360.67 498.49 353.02C489.21 335.63 479.99 318.16 470.83 300.67C444.57 250.58 417.83 200.68 392.27 150.26C387.46 140.77 382.37 131.44 377.51 121.99C363.37 94.53 347.9 68.26 314.66 62.64C309.16 61.71 303.87 61.07 298.29 61.56C292.01 62.11 285.81 63.17 279.92 65.44C244.54 79 233.91 106.55 217.36 137.85C207.15 157.16 196.36 176.19 185.77 195.29C158.16 245.13 131.25 295.39 103.89 345.38C95.99 359.82 88.17 374.31 80.31 388.79C69.3 409.07 58.89 428.73 59.15 452.5C59.78 508.41 111.04 551.82 166.46 540.81C184.58 537.21 200.27 526.44 213.5 514.06C219.82 514.56 232.49 519.27 238.92 521.55C242.17 522.69 245.66 523.28 248.16 525.5C242.63 534.31 234.24 541.21 226.47 547.97C205.06 566.61 176.98 577.9 148.5 578.28C92.23 579.04 39.64 536.65 26.43 482.19C20.81 459.01 20.99 433.6 28.41 410.81C32.26 398.98 38.03 388.24 43.77 377.27C51.42 362.67 59.32 348.2 67.28 333.76C83.78 303.87 99.54 273.52 116.29 243.77C128.41 222.24 140.81 200.83 152.6 179.11C159.84 165.75 167.24 152.48 174.74 139.26C184.9 121.36 193.89 102.75 204.68 85.22C226.01 50.57 257.68 27.62 299.5 26.17C335.97 24.9 369.48 42.52 390.85 71.68C398.58 82.23 404.54 94.38 410.56 105.94C420.7 125.43 431.07 144.8 441.23 164.28C463.46 206.9 486.45 249.15 508.71 291.76C522.76 318.66 537.08 345.41 551.28 372.23C560.2 389.07 570.67 406.94 574.58 425.78C583.07 466.67 573.92 506.25 545.9 537.39C533.66 551 517.76 561.65 500.76 568.31C486.72 573.81 471.63 576.47 456.53 575.58C445.19 574.92 434.01 572.28 423.51 567.97C414.79 564.4 407.12 559.58 399.87 553.6C360.01 520.67 360.25 467.84 356.01 420.5C354.48 403.32 353.3 384.91 346.66 368.79C328.66 325.15 267.46 327.45 244.76 365.5ZM763.5 410.87C756.82 414.35 750.82 420.07 743.35 423.84C729.41 430.9 712.96 433.09 697.5 431.75C686.66 430.81 676.38 427.55 666.61 422.87C597.95 389.98 599.14 282.48 667.37 249.87C676.86 245.33 686.7 242.58 697.18 241.53C714.22 239.84 730.77 242.71 746.02 250.5C751.7 253.4 758.24 259.72 763.5 261.65C764.24 253.99 763.74 246.19 763.82 238.5C764.02 219.51 763.92 200.49 763.83 181.5C763.8 174.84 763.78 168.16 763.8 161.5C763.81 158.72 763.22 154.98 765.21 152.74C768.33 149.21 784.53 150.73 789.5 150.74C796.5 150.75 803.5 150.63 810.5 150.78C813.26 150.83 816.92 150.25 819.01 152.51C822.43 156.21 820.36 164.51 820.49 169.16C820.94 184.59 820.52 200.07 820.58 215.5C820.77 265.49 820.87 315.51 820.44 365.5C820.33 379.17 820.56 392.83 820.56 406.5C820.57 411.59 822.01 419.49 819.6 424.17C817.38 428.5 802.92 427.03 798.5 426.98C790.17 426.88 781.83 426.93 773.5 426.88C770.36 426.86 766.38 427.17 764.61 423.87C762.78 420.45 763.95 414.7 763.5 410.87ZM1355.5 259.87C1370.8 249.05 1384.11 241.85 1403.5 241.27C1418.43 240.82 1433.58 243.73 1446.93 250.56C1499.3 277.34 1510.58 347.47 1479.3 394.77C1452.93 434.66 1392.56 444.61 1355.5 414.29C1354.45 417.66 1355.38 422.44 1352.7 425.2C1350.37 427.59 1346.52 426.98 1343.5 426.98C1335.5 426.96 1327.5 426.96 1319.5 426.96C1314.58 426.95 1302.59 429.18 1300.5 423.05C1298.83 418.17 1300.08 408.86 1300.07 403.5C1300.04 389.17 1300.09 374.83 1300.12 360.5C1300.2 312.83 1299.92 265.17 1300.14 217.5C1300.22 201.84 1300.07 186.17 1300.05 170.5C1300.05 166.36 1298.79 155.99 1301.38 152.89C1303.57 150.27 1307.45 150.8 1310.5 150.8C1317.5 150.79 1324.5 150.73 1331.5 150.78C1336.18 150.81 1349.97 149.26 1353.17 152.35C1355.33 154.45 1354.95 157.75 1354.95 160.5C1354.94 167.17 1354.7 173.83 1354.72 180.5C1354.78 197.83 1354.75 215.17 1354.68 232.5C1354.65 241.25 1353.47 251.4 1355.5 259.87ZM1742.5 259.84C1753.73 251.48 1764.98 245.13 1778.93 242.48C1789.86 240.4 1801.63 240.51 1812.53 242.85C1822.63 245.02 1832.54 248.57 1841.2 254.32C1849.84 260.07 1857.99 266.9 1864.33 275.2C1891.56 310.84 1890.51 365.88 1861.94 400.44C1852.94 411.33 1841.32 419.25 1828.56 425.06C1816.77 430.43 1803.39 432.39 1790.5 432.04C1769.04 431.46 1759.68 424.34 1742.5 413.81C1741.57 417.35 1742.62 422.4 1739.69 425.19C1737.08 427.68 1732.77 426.91 1729.5 426.91C1721.83 426.9 1714.17 427.01 1706.5 426.97C1701.63 426.94 1689.47 429.31 1687.48 423.08C1685.92 418.17 1687.13 408.88 1687.12 403.5C1687.09 389.5 1687.2 375.5 1687.12 361.5C1686.86 313.17 1687 264.83 1687.11 216.5C1687.15 200.84 1686.93 185.16 1687.08 169.5C1687.12 165.37 1685.85 155.27 1688.83 152.35C1690.88 150.35 1693.88 150.8 1696.5 150.79C1702.83 150.76 1709.17 150.8 1715.5 150.72C1721.17 150.65 1726.83 150.73 1732.5 150.68C1735.12 150.65 1738.21 150.24 1740.24 152.26C1742.35 154.35 1741.81 157.8 1741.82 160.5C1741.82 167.17 1741.8 173.83 1741.82 180.5C1741.88 198.17 1741.77 215.83 1741.8 233.5C1741.82 241.8 1740.3 251.91 1742.5 259.84ZM1250.5 246.03C1257.82 246.46 1265.17 246.16 1272.5 246.14C1275.46 246.13 1279.73 245.35 1282.27 247.21C1285.5 249.58 1284.65 254.04 1284.64 257.5C1284.62 265.5 1284.74 273.5 1284.68 281.5C1284.66 284.73 1285.23 289.48 1281.75 291.28C1279.19 292.61 1275.31 291.92 1272.5 291.94C1265.17 291.99 1257.83 291.69 1250.5 292.04C1248.79 298.71 1249.79 306.58 1249.79 313.5C1249.77 327.83 1249.71 342.17 1249.79 356.5C1249.83 364.17 1249.38 374.17 1255.76 379.71C1265.22 387.93 1275.16 380.03 1283.5 383.92C1286.98 388.81 1285.59 397.65 1285.58 403.5C1285.57 408.66 1287.09 420.57 1284.31 424.8C1282.06 428.22 1270.74 429.75 1266.76 430.42C1248.4 433.47 1226.66 432.27 1211.82 419.65C1197.32 407.31 1194.3 386.37 1194.33 368.5C1194.35 353.17 1194.3 337.83 1194.39 322.5C1194.45 312.57 1195.06 302.37 1194.02 292.5C1189.49 291.59 1179.54 293.34 1176.37 290.13C1174.19 287.94 1174.74 284.33 1174.65 281.5C1174.42 273.49 1174.62 265.51 1174.64 257.5C1174.65 254.5 1173.85 250.08 1176.27 247.78C1179.31 244.87 1189.34 246.21 1193.5 246.11C1196.01 237.92 1194.34 219.86 1194.36 210.5C1194.38 206.54 1193.1 200.19 1195.1 196.64C1197.28 192.76 1202.78 193.92 1206.5 193.89C1216.83 193.82 1227.17 193.82 1237.5 193.81C1241.18 193.81 1246.84 192.68 1249.01 196.54C1250.99 200.05 1249.78 206.56 1249.78 210.5C1249.77 220.32 1248.23 237.11 1250.5 246.03ZM229.5 224.1C232.38 225.91 232.67 229.34 233.89 232.53C235.81 237.53 238.1 242.76 241.63 246.85C245.69 251.54 251.58 254.1 257.26 256.28C259.81 257.26 262.06 257.67 263.97 259.5C258.15 264.18 249.37 264.7 243.08 270.57C238.78 274.58 235.67 280.77 233.67 286.24C232.63 289.06 232.1 292.01 230.5 294.57C228 293.01 227.55 289.92 226.48 287.03C224.54 281.82 222.57 276.89 218.86 272.65C211.92 264.73 202.7 265.2 196.46 259.5C198.99 256.43 211.59 253.36 217 248.5C225.48 240.9 224.43 232.65 229.5 224.1ZM1138.5 300.29C1133.58 299.97 1130.99 297.02 1126.91 294.58C1121.76 291.5 1116.27 288.64 1110.49 286.97C1103.63 284.98 1094.53 284.14 1087.93 287.45C1081.78 290.54 1079.65 298.76 1084.51 304C1091.55 311.57 1109.67 313.33 1119.47 316.05C1146.09 323.42 1167.1 334.79 1171.35 364.35C1172.43 371.86 1171.98 379.97 1169.65 387.24C1154.24 435.25 1092.5 440.56 1052.33 423.18C1042.44 418.9 1031.48 413.52 1024.13 405.35C1020.62 401.46 1022.23 398.08 1024.91 394.36C1029.36 388.21 1034.54 382.58 1038.95 376.39C1040.88 373.68 1043.29 368.3 1046.75 367.35C1052.18 365.87 1058.05 373.49 1062.22 376.31C1073.84 384.17 1087.42 388.64 1101.5 387.25C1107.43 386.66 1115.24 384.34 1117.5 378.01C1119.85 371.42 1116.26 365.99 1110.62 362.88C1101.06 357.59 1088.9 356.04 1078.45 353.14C1055.09 346.65 1034.14 334.84 1029.49 309.04C1028.57 303.95 1028.59 298.65 1029.07 293.5C1029.65 287.32 1031.53 281.26 1034.16 275.65C1050.35 241.11 1099.39 234.8 1131.69 246.74C1140.29 249.92 1148.45 254.18 1155.74 259.75C1157.98 261.46 1161.84 263.9 1162.8 266.68C1164.32 271.07 1161.03 273.93 1158.49 277C1152.8 283.89 1145.97 295.84 1138.5 300.29ZM1561.5 259.88C1569.82 252.61 1579.04 246.32 1589.88 243.45C1623.64 234.52 1656.35 250.13 1668.6 282.81C1673.06 294.68 1672.95 308.01 1672.98 320.5C1673.01 334.83 1672.99 349.17 1672.95 363.5C1672.91 378.83 1672.99 394.17 1672.96 409.5C1672.96 413.98 1674.69 422.97 1670.41 425.97C1667.67 427.89 1662.68 426.82 1659.5 426.88C1649.5 427.04 1639.5 426.78 1629.5 426.89C1625.44 426.93 1620.13 427.49 1618.85 422.48C1617.4 416.82 1618.65 400.31 1618.61 393.5C1618.46 372.17 1618.55 350.84 1618.64 329.5C1618.7 314.76 1617.19 297.67 1600.44 293.12C1597.2 292.24 1593.86 291.92 1590.5 291.95C1568.65 292.09 1561.21 309.23 1561.16 328.5C1561.12 350.17 1561.17 371.83 1561.23 393.5C1561.25 400.03 1562.57 418.07 1560.72 423.27C1559.06 427.94 1553.37 426.94 1549.5 426.93C1539.5 426.91 1529.5 426.93 1519.5 426.92C1516.01 426.92 1511.04 427.94 1508.44 425.05C1505.92 422.25 1506.97 416.97 1506.98 413.5C1507.01 403.83 1506.99 394.17 1506.94 384.5C1506.78 352.5 1507.07 320.5 1507.01 288.5C1507 279.5 1507.03 270.5 1507.01 261.5C1507 257.87 1506.01 252.47 1507.62 249.14C1509.61 245.02 1515.85 246.11 1519.5 246.1C1528.5 246.09 1537.5 246.06 1546.5 246.12C1549.98 246.14 1555.22 245.16 1558.28 247.2C1562.16 249.8 1560.61 255.97 1561.5 259.88ZM891.6 248.5C893.97 257.75 892.39 272.6 892.27 282.5C892.02 303.47 891.94 324.54 892.32 345.5C892.71 366.65 905.03 382.44 927.5 380.83C939.3 379.99 950.97 373.23 954.79 361.37C957.37 353.4 956.92 344.76 956.9 336.5C956.87 324.83 956.74 313.17 956.85 301.5C956.93 293.5 956.86 285.5 956.86 277.5C956.85 270.5 956.95 263.5 956.96 256.5C956.96 253.73 956.3 250.1 958.4 247.9C961.44 244.73 967.6 246.12 971.5 246.19C979.82 246.33 988.18 246.17 996.5 246.09C1000.58 246.05 1005.35 245.38 1009.35 246.28C1015.12 247.57 1013.76 255.17 1013.73 259.5C1013.67 273.17 1013.73 286.83 1013.78 300.5C1013.82 312.5 1013.67 324.5 1013.64 336.5C1013.54 369.39 1010.53 394.97 982.48 415.99C976.45 420.5 969.13 423.88 962.11 426.57C952.21 430.36 941.02 431.7 930.5 432.09C896.2 433.38 858.11 420.95 843.49 387.03C832.8 362.21 836.26 333.86 836.16 307.5C836.11 293.84 836.08 280.16 836.14 266.5C836.17 261.58 834.79 253.98 836.91 249.47C839.06 244.92 845.36 246.03 849.5 246.05C859.17 246.09 868.83 246.13 878.5 246.13C883.12 246.13 887.99 245.2 891.6 248.5ZM710.66 292.37C704.33 293.22 697.7 295.35 692.27 298.76C660.54 318.71 668.26 368.71 704.2 379.39C710.57 381.29 717.86 381.63 724.42 380.7C750.04 377.04 767.92 352.37 762.63 326.75C760.65 317.16 755.25 309.73 748.22 303.28C743.64 299.08 738.35 296.01 732.39 294.2C725.43 292.08 717.88 291.41 710.66 292.37ZM1390.69 292.4C1346.78 297.72 1340.31 361.68 1380.32 378.24C1388.1 381.45 1397.19 381.99 1405.45 380.74C1435.05 376.28 1449.66 341.59 1436.69 315.79C1428.05 298.61 1409.45 290.13 1390.69 292.4ZM1778.58 292.36C1732.92 297.69 1727.41 364.73 1770.56 378.9C1777.45 381.16 1785.18 381.67 1792.34 380.64C1835.54 374.4 1842.18 311.64 1802.25 295.28C1794.77 292.21 1786.56 291.43 1778.58 292.36ZM179.5 295.55C182.87 298.86 183.47 304.16 186.52 307.96C190.82 313.35 197.18 315.18 202.88 318.5C198.84 322.25 192.52 322.88 188.45 326.94C184.16 331.23 183.37 337.77 179.5 341.87C176.69 336.09 175.77 330.32 170.6 325.92C166.63 322.54 161.12 321.78 157.34 318.5C162.49 314.42 168 314.41 173.11 308.61C176.42 304.84 177.07 299.76 179.5 295.55ZM437.5 375.97C441.11 380.98 441.88 387.57 446.14 392.34C450.82 397.6 457.49 398.61 462.86 402.5C459.94 406.75 451.58 407.48 447.26 411.76C441.66 417.34 441.7 424.53 437.5 429.68C433.12 424.02 432.78 416.98 427.04 411.44C422.78 407.33 415.63 406.76 412.06 402.5C417.59 398.55 424.17 397.83 429.36 391.84C433.36 387.23 433.8 380.42 437.5 375.97Z" fill="#000000" fill-rule="evenodd" stroke="#000000" stroke-width="0.25" stroke-linejoin="round"/>
</svg>