<?xml version="1.0" standalone="no"?>
<!DOCTYPE svg PUBLIC "-//W3C//DTD SVG 20010904//EN"
 "http://www.w3.org/TR/2001/REC-SVG-20010904/DTD/svg10.dtd">
<svg version="1.0" xmlns="http://www.w3.org/2000/svg"
 width="1295.000000pt" height="1214.000000pt" viewBox="0 0 1295.000000 1214.000000"
 preserveAspectRatio="xMidYMid meet">

<g transform="translate(0.000000,1214.000000) scale(0.100000,-0.100000)"
fill="#000000" stroke="none">
<path d="M6385 11349 c-317 -17 -609 -109 -906 -285 -109 -64 -246 -160 -299
-209 -125 -114 -179 -169 -174 -177 3 -5 0 -7 -8 -6 -7 2 -12 -3 -10 -10 1 -8
-1 -11 -6 -8 -21 13 -226 -262 -317 -424 -32 -58 -66 -116 -76 -130 -9 -14
-46 -79 -81 -145 -36 -66 -105 -190 -155 -275 -154 -267 -235 -412 -279 -498
-24 -46 -48 -89 -53 -96 -6 -7 -8 -16 -4 -19 3 -4 1 -7 -6 -7 -7 0 -10 -4 -6
-9 3 -6 -3 -18 -13 -28 -22 -21 -98 -154 -94 -165 1 -5 -3 -8 -9 -8 -5 0 -8
-4 -5 -9 4 -5 2 -11 -3 -13 -5 -1 -56 -86 -113 -188 -137 -243 -186 -329 -273
-480 -40 -69 -91 -159 -115 -200 -23 -41 -66 -116 -94 -165 -29 -50 -62 -112
-75 -138 -12 -26 -27 -49 -32 -53 -5 -3 -9 -12 -9 -20 0 -8 -9 -24 -20 -36
-11 -12 -20 -29 -20 -39 0 -9 -7 -22 -16 -30 -9 -7 -23 -27 -32 -45 -9 -17
-29 -54 -45 -83 -15 -28 -26 -52 -25 -53 1 -2 -7 -13 -17 -26 -11 -12 -18 -25
-17 -29 2 -3 0 -9 -5 -12 -9 -6 -298 -505 -374 -646 -21 -38 -35 -73 -33 -77
3 -4 1 -8 -5 -8 -5 0 -39 -51 -74 -112 -147 -256 -346 -608 -384 -678 -23 -41
-58 -104 -79 -140 -20 -36 -58 -103 -84 -150 -43 -79 -92 -165 -225 -395 -93
-159 -167 -296 -169 -311 -1 -7 -12 -26 -25 -41 -26 -32 -148 -278 -153 -308
-2 -11 -6 -22 -9 -25 -9 -7 -55 -152 -79 -249 -101 -402 -104 -774 -10 -1140
11 -46 28 -94 36 -107 9 -13 13 -27 10 -33 -3 -5 -2 -11 3 -13 6 -1 11 -14 13
-28 2 -14 7 -31 11 -38 5 -6 6 -12 2 -12 -3 0 0 -10 7 -22 7 -13 11 -26 10
-30 -1 -5 2 -8 8 -8 6 0 9 -3 8 -7 -1 -5 3 -18 10 -31 7 -12 10 -22 7 -22 -3
0 1 -10 10 -23 8 -13 12 -27 8 -30 -3 -4 -1 -7 6 -7 7 0 9 -4 6 -10 -3 -5 -1
-10 5 -10 6 0 8 -4 5 -10 -3 -6 -1 -10 5 -10 6 0 8 -5 5 -10 -3 -5 -1 -10 5
-10 6 0 8 -4 5 -10 -3 -5 -1 -10 5 -10 6 0 8 -4 5 -10 -3 -5 -2 -10 4 -10 6 0
13 -11 17 -25 3 -14 11 -25 17 -25 6 0 7 -3 4 -6 -8 -8 24 -64 36 -64 4 0 5
-5 2 -10 -3 -6 -2 -10 3 -10 6 0 14 -12 20 -27 23 -67 195 -282 305 -383 39
-36 89 -82 112 -102 22 -21 43 -38 46 -38 3 0 17 -9 30 -21 38 -33 102 -76
165 -110 33 -18 66 -37 74 -44 28 -22 178 -94 184 -88 3 4 6 1 6 -5 0 -7 3
-11 8 -10 4 1 17 -3 30 -10 12 -7 22 -10 22 -6 0 3 6 2 13 -4 30 -25 401 -135
477 -141 68 -6 88 -9 105 -14 11 -3 85 -11 165 -17 135 -9 230 -6 460 15 80 7
269 44 307 60 18 8 33 12 33 9 0 -2 16 2 35 10 20 9 38 15 40 16 3 0 6 0 8 1
1 0 12 2 23 4 12 3 34 9 50 15 16 6 29 10 30 8 0 -2 8 3 17 11 10 7 17 10 17
6 0 -3 16 3 35 15 19 12 35 19 35 15 0 -4 24 7 53 24 30 17 57 28 60 24 4 -3
7 -1 7 6 0 7 4 10 9 6 5 -3 16 2 24 10 9 8 21 15 27 15 6 0 20 9 32 20 11 10
34 22 49 25 16 4 29 11 29 16 0 5 7 9 15 9 17 0 182 111 280 189 251 199 462
412 673 678 51 65 176 247 229 334 73 121 210 389 258 504 20 50 43 104 50
120 6 17 27 67 45 113 18 45 37 82 43 82 20 0 0 -274 -33 -430 -26 -129 -44
-192 -105 -360 -19 -53 -91 -197 -146 -291 -21 -36 -39 -71 -41 -79 -2 -7 -13
-24 -26 -38 -12 -14 -25 -37 -29 -51 -3 -14 -9 -30 -13 -36 -10 -13 10 -116
21 -109 4 2 16 -7 25 -22 16 -24 59 -49 77 -46 4 1 7 -3 7 -10 0 -6 3 -8 6 -5
4 3 15 2 24 -3 30 -16 181 -28 250 -20 59 7 105 16 105 20 0 1 8 3 18 5 18 3
57 20 127 53 56 27 202 179 265 275 103 158 173 324 249 587 48 168 78 455 72
697 -5 212 -13 295 -41 413 -3 14 -8 38 -10 54 -7 49 -25 97 -73 196 -38 80
-58 108 -136 185 -143 144 -309 233 -551 295 -215 55 -396 76 -724 85 -113 3
-207 7 -209 10 -9 9 89 134 155 196 98 92 184 151 304 208 233 111 499 137
757 75 145 -35 307 -129 419 -241 54 -54 193 -248 193 -269 0 -4 13 -41 30
-83 27 -69 64 -204 76 -274 14 -88 24 -159 29 -202 6 -48 16 -149 17 -165 0
-8 4 -49 9 -90 12 -103 17 -153 24 -235 3 -38 11 -110 16 -160 6 -49 12 -108
14 -130 2 -22 7 -62 10 -90 3 -27 8 -72 11 -100 3 -27 7 -61 9 -75 2 -14 6
-50 9 -80 5 -48 10 -76 22 -140 1 -8 5 -35 9 -60 3 -25 11 -63 17 -85 6 -22
12 -49 14 -61 4 -32 25 -109 70 -252 2 -7 3 -15 3 -18 0 -4 3 -10 8 -13 4 -3
17 -33 28 -66 33 -99 159 -322 251 -445 47 -63 129 -162 182 -219 97 -104 266
-254 309 -274 13 -6 23 -15 23 -20 0 -6 3 -7 6 -4 4 4 14 -1 23 -11 14 -16 51
-41 116 -79 47 -27 264 -133 311 -152 29 -11 55 -17 58 -14 3 4 6 1 6 -5 0 -7
13 -12 29 -12 17 0 33 -5 36 -10 4 -6 10 -8 15 -5 5 3 11 1 15 -5 4 -6 10 -8
14 -5 5 2 21 -2 37 -9 16 -8 88 -24 159 -36 138 -24 384 -32 520 -18 39 4 94
10 123 13 68 6 273 54 290 67 6 6 12 7 12 3 0 -4 7 -1 17 6 9 8 18 13 20 12 1
-2 4 -3 6 -2 1 0 12 2 25 5 12 2 39 11 60 21 20 9 39 17 42 18 78 25 296 139
395 206 168 114 340 260 433 369 119 139 137 162 205 262 66 98 232 417 222
427 -3 2 0 10 6 18 6 7 8 13 5 13 -4 0 0 10 8 21 8 12 12 28 9 35 -3 8 0 14 6
14 6 0 8 7 5 15 -4 8 -1 15 5 15 6 0 8 7 5 15 -4 8 -1 15 5 15 7 0 11 6 10 12
-1 7 3 24 8 38 13 30 41 166 48 230 3 25 8 63 11 85 13 83 15 411 5 504 -12
98 -38 254 -49 281 -3 8 -4 19 -3 24 1 4 -4 14 -10 22 -6 8 -8 14 -4 14 4 0 2
6 -4 14 -6 8 -11 18 -10 22 1 5 0 12 -1 17 -1 4 -4 12 -5 17 -1 6 -4 12 -5 15
-1 3 -3 8 -5 13 -1 4 -7 20 -13 35 -7 16 -12 36 -12 46 0 9 -5 22 -12 29 -7 7
-9 12 -5 12 4 0 2 10 -5 23 -6 12 -13 28 -14 36 -2 8 -9 18 -16 22 -7 5 -9 9
-5 9 5 0 -1 15 -12 33 -11 19 -18 37 -14 40 3 4 1 7 -6 7 -7 0 -9 4 -6 10 3 5
1 10 -5 10 -6 0 -8 5 -5 10 3 6 1 10 -5 10 -6 0 -8 5 -5 10 3 6 1 10 -5 10 -6
0 -8 5 -5 10 3 6 1 10 -5 10 -6 0 -8 4 -5 10 3 5 2 10 -3 10 -9 0 -37 50 -34
63 1 4 -2 7 -7 7 -5 0 -16 17 -25 38 -9 20 -20 44 -26 52 -5 8 -38 67 -73 130
-68 123 -241 426 -286 500 -16 25 -72 124 -127 220 -54 96 -101 177 -104 180
-4 3 -20 30 -37 60 -16 30 -46 83 -66 118 -20 34 -34 62 -32 62 3 0 -3 9 -12
20 -9 10 -18 27 -19 37 -2 10 -8 19 -13 21 -6 2 -11 8 -11 12 0 9 -99 187
-159 289 -14 24 -35 60 -46 80 -107 190 -207 363 -215 371 -3 3 -13 23 -23 45
-20 42 -147 266 -157 275 -3 3 -6 12 -8 20 -2 8 -8 17 -13 18 -5 2 -9 10 -9
18 0 8 -5 14 -11 14 -5 0 -8 4 -4 9 3 5 -1 15 -8 23 -7 7 -18 24 -25 38 -7 14
-22 43 -34 65 -11 22 -24 42 -28 45 -4 3 -17 25 -30 49 -12 25 -29 51 -36 59
-8 7 -14 22 -14 32 0 10 -5 22 -11 26 -6 3 -20 25 -30 48 -19 39 -27 56 -49
94 -6 9 -13 24 -17 32 -10 23 -86 154 -92 160 -3 3 -25 43 -48 90 -23 47 -84
157 -134 245 -50 88 -118 207 -150 265 -32 58 -62 110 -67 115 -5 6 -17 29
-27 53 -10 23 -22 42 -26 42 -4 0 -13 16 -20 35 -7 19 -16 35 -19 35 -8 0 -34
52 -32 63 1 4 -3 7 -9 7 -5 0 -7 5 -4 10 3 6 2 10 -3 10 -9 0 -47 70 -44 83 1
4 -3 7 -10 7 -6 0 -9 3 -5 6 3 3 -3 15 -13 27 -11 11 -17 23 -15 28 3 4 -1 14
-9 22 -8 8 -22 31 -31 53 -9 21 -19 41 -23 44 -4 3 -18 28 -32 55 -13 28 -33
64 -45 80 -11 17 -20 33 -20 37 0 4 -6 15 -12 25 -7 10 -35 61 -61 113 -27 52
-69 129 -94 170 -25 41 -65 111 -88 155 -24 44 -81 146 -126 227 -46 80 -87
154 -91 165 -3 10 -22 43 -42 73 -19 30 -34 58 -33 63 1 4 -3 7 -9 7 -5 0 -7
5 -4 10 3 6 1 10 -4 10 -6 0 -11 6 -11 13 0 7 -9 23 -20 35 -11 12 -20 26 -20
32 0 5 -4 10 -10 10 -5 0 -10 5 -10 10 0 10 -8 22 -37 55 -7 7 -13 18 -13 24
0 6 -9 15 -20 21 -11 6 -20 16 -20 22 0 20 -173 204 -270 288 -29 25 -75 65
-103 89 -65 56 -220 158 -328 215 -120 64 -326 143 -443 171 -119 29 -291 56
-310 49 -7 -3 -37 -1 -67 3 -30 4 -108 5 -174 2z m296 -695 c120 -20 263 -66
359 -114 80 -40 236 -140 283 -181 78 -68 180 -174 223 -231 62 -82 114 -157
113 -163 0 -3 15 -34 34 -68 19 -34 52 -93 72 -132 21 -38 97 -178 170 -310
72 -132 154 -280 181 -330 27 -49 56 -103 66 -120 9 -16 30 -55 45 -85 15 -30
32 -58 38 -62 5 -4 6 -8 1 -8 -5 0 -3 -7 4 -15 7 -9 23 -35 35 -58 69 -134
140 -263 149 -269 6 -4 8 -8 4 -8 -4 0 7 -24 24 -52 17 -29 46 -82 66 -118 19
-36 72 -131 118 -212 46 -81 84 -149 84 -151 0 -3 24 -47 53 -98 29 -52 75
-134 101 -184 27 -49 58 -106 70 -125 34 -57 54 -92 76 -140 12 -24 25 -47 29
-50 5 -3 20 -27 33 -55 22 -44 50 -98 132 -250 11 -22 24 -42 27 -45 4 -3 14
-21 23 -40 9 -19 32 -64 52 -100 20 -36 61 -110 91 -165 30 -55 58 -102 62
-105 3 -3 7 -11 9 -18 1 -7 37 -73 80 -148 42 -74 90 -158 105 -187 26 -46
133 -237 157 -277 4 -8 30 -53 56 -100 27 -47 53 -88 59 -92 6 -5 6 -8 0 -8
-7 0 -7 -3 0 -8 6 -4 28 -42 50 -84 22 -43 42 -78 45 -78 5 0 32 -49 44 -80 3
-8 17 -33 31 -55 13 -22 30 -51 36 -65 13 -30 185 -339 279 -500 59 -102 102
-178 254 -454 21 -39 42 -73 45 -76 3 -3 26 -44 51 -92 25 -49 49 -88 53 -88
5 0 5 -5 2 -10 -3 -6 -1 -10 5 -10 6 0 8 -4 5 -10 -3 -5 -1 -10 5 -10 6 0 8
-5 5 -10 -3 -6 -2 -10 3 -10 7 0 61 -104 69 -135 4 -15 72 -210 74 -210 0 0 2
-9 4 -20 2 -11 6 -31 9 -45 36 -147 36 -353 0 -540 -7 -41 -15 -84 -17 -95 -2
-11 -9 -40 -16 -65 -8 -25 -14 -49 -15 -55 -1 -5 -12 -32 -24 -59 -12 -27 -22
-54 -22 -62 0 -7 -5 -16 -11 -19 -6 -4 -8 -14 -5 -22 3 -8 2 -11 -3 -8 -5 3
-13 -5 -16 -17 -4 -13 -14 -31 -23 -41 -8 -9 -11 -17 -6 -17 5 0 4 -4 -1 -8
-6 -4 -23 -28 -38 -54 -84 -146 -271 -344 -422 -447 -107 -73 -221 -134 -325
-174 -36 -13 -74 -28 -85 -32 -11 -4 -24 -9 -30 -10 -191 -46 -224 -50 -390
-50 -177 1 -266 13 -398 57 -34 11 -66 21 -72 22 -5 1 -20 7 -31 14 -12 6 -24
8 -28 5 -3 -3 -6 0 -6 7 0 7 -2 11 -5 8 -12 -12 -263 134 -322 186 -6 6 -42
38 -79 71 -81 73 -186 195 -247 290 -61 96 -137 234 -137 251 0 8 -4 14 -10
14 -5 0 -10 9 -10 20 0 11 -4 28 -9 38 -10 19 -23 51 -26 68 -2 6 -10 36 -18
65 -9 30 -17 57 -17 61 -1 4 -11 40 -21 80 -11 40 -22 87 -25 103 -3 17 -7 40
-9 52 -10 48 -16 79 -21 113 -12 82 -24 172 -27 215 -1 17 -6 35 -10 42 -4 7
-7 29 -7 50 1 21 -1 54 -4 73 -3 19 -7 55 -10 80 -3 25 -8 65 -11 90 -3 25 -8
65 -10 90 -5 49 -14 121 -21 160 -2 14 -6 41 -9 60 -2 19 -7 51 -10 70 -3 19
-8 53 -11 75 -9 78 -46 260 -57 280 -6 11 -11 31 -12 45 -1 14 -4 32 -7 40 -3
8 -14 43 -23 78 -10 34 -22 62 -27 62 -5 0 -6 4 -3 10 8 13 -51 151 -102 238
-125 211 -227 334 -380 457 -119 95 -336 213 -443 240 -6 2 -39 14 -67 26 -28
11 -29 37 -4 92 60 133 151 349 241 572 4 11 13 34 21 50 7 17 13 32 14 35 1
3 5 17 9 33 5 15 13 27 19 27 6 0 7 3 4 7 -4 3 -1 16 6 27 11 18 70 152 73
166 6 32 18 60 26 60 5 0 7 4 3 9 -3 5 -1 12 5 16 6 4 8 11 5 16 -4 5 -1 9 4
9 6 0 10 3 9 8 -3 10 25 82 32 82 3 0 6 8 7 18 1 10 13 43 26 73 14 30 39 84
56 122 17 37 31 73 31 80 0 7 4 17 9 23 5 5 59 128 121 274 61 146 129 303
150 350 21 47 68 157 105 245 75 183 82 200 102 238 8 15 11 27 7 27 -3 0 -2
6 4 13 5 6 16 40 23 75 9 51 9 78 0 133 -7 38 -16 69 -20 69 -4 0 -13 17 -20
38 -22 62 -147 174 -208 185 -10 2 -27 8 -38 13 -11 5 -58 8 -105 8 -109 -1
-181 -28 -253 -94 -66 -60 -101 -124 -172 -316 -31 -82 -60 -158 -65 -169 -8
-18 -104 -259 -270 -682 -28 -73 -48 -138 -44 -144 4 -7 3 -9 -3 -6 -9 5 -78
-154 -76 -173 1 -3 -8 -22 -18 -42 -11 -21 -17 -38 -13 -38 4 0 1 -7 -6 -15
-7 -8 -9 -15 -5 -15 4 0 0 -12 -10 -26 -9 -14 -14 -32 -11 -40 3 -8 2 -13 -3
-9 -5 3 -17 -16 -26 -42 -9 -27 -21 -55 -25 -65 -5 -9 -22 -52 -38 -95 -17
-43 -33 -87 -38 -98 -4 -11 -8 -23 -9 -27 -2 -5 -4 -10 -5 -13 -1 -3 -3 -8 -4
-12 -1 -5 -10 -26 -20 -48 -28 -64 -74 -179 -78 -195 -2 -8 -6 -17 -10 -20 -4
-3 -9 -15 -11 -25 -1 -11 -5 -24 -9 -30 -3 -5 -20 -48 -38 -95 -17 -47 -35
-94 -40 -105 -5 -11 -26 -63 -46 -115 -19 -52 -42 -108 -49 -125 -7 -16 -18
-46 -25 -65 -7 -19 -22 -57 -35 -85 -12 -27 -30 -72 -40 -98 -20 -53 -27 -58
-100 -77 -72 -18 -268 -97 -351 -141 -97 -51 -243 -155 -336 -240 -83 -75
-230 -242 -223 -253 3 -3 2 -4 -1 -1 -11 7 -85 -105 -78 -117 4 -7 2 -8 -4 -4
-11 7 -35 -26 -27 -38 3 -3 2 -4 -2 -1 -8 6 -63 -75 -63 -92 0 -7 -4 -13 -9
-13 -5 0 -12 -13 -16 -30 -4 -16 -10 -30 -15 -30 -5 0 -12 -10 -16 -22 -4 -13
-11 -26 -17 -30 -6 -3 -12 -14 -13 -24 -2 -10 -10 -21 -18 -26 -9 -5 -16 -15
-16 -22 0 -7 -9 -23 -20 -36 -11 -12 -17 -26 -15 -30 3 -5 1 -10 -3 -12 -4 -1
-44 -61 -87 -133 -279 -458 -550 -785 -804 -974 -44 -32 -78 -62 -75 -65 2 -3
2 -4 -1 -2 -3 2 -41 -17 -84 -43 -113 -66 -145 -84 -156 -87 -46 -13 -100 -38
-117 -54 -12 -11 -26 -20 -30 -20 -5 0 -22 -21 -39 -47 -26 -42 -29 -56 -28
-116 1 -37 6 -70 11 -73 4 -3 6 -9 3 -14 -3 -5 0 -14 7 -22 7 -7 26 -30 41
-50 31 -42 87 -88 114 -93 10 -2 19 -4 21 -5 1 -2 7 -4 12 -5 6 -1 11 -3 13
-5 17 -14 147 -20 192 -9 22 5 45 11 50 12 6 1 15 5 20 9 6 3 27 9 48 13 20 4
37 12 37 18 0 6 3 8 6 5 5 -6 144 58 154 71 3 3 26 17 53 31 26 13 47 28 47
32 0 5 5 8 12 8 6 0 64 39 127 87 149 113 363 330 466 471 81 112 111 137 99
85 -25 -114 -99 -281 -192 -433 -113 -185 -302 -401 -415 -475 -32 -20 -62
-46 -68 -56 -5 -11 -16 -19 -23 -19 -36 0 -44 -134 -10 -185 22 -33 85 -76
147 -99 38 -14 68 -17 135 -14 162 9 288 82 482 278 114 115 231 262 348 436
63 95 147 234 163 269 5 11 27 49 50 85 23 36 57 95 76 133 35 66 47 79 55 55
6 -16 -25 -187 -45 -256 -9 -29 -16 -54 -17 -57 -4 -25 -63 -171 -110 -270
-55 -118 -126 -234 -208 -342 -32 -43 -60 -82 -61 -88 0 -5 -4 -10 -8 -11 -5
0 -72 -64 -150 -141 -136 -135 -308 -280 -443 -375 -82 -58 -274 -168 -301
-173 -12 -2 -26 -8 -33 -13 -29 -22 -252 -93 -386 -122 -88 -19 -126 -22 -300
-24 -205 -1 -295 7 -421 38 -36 9 -70 16 -75 14 -5 -1 -19 3 -31 10 -13 7 -23
11 -23 8 0 -3 -12 1 -26 9 -15 7 -35 12 -45 10 -11 -2 -19 0 -19 5 0 5 -7 7
-15 4 -8 -4 -15 -1 -15 5 0 12 -57 38 -72 33 -5 -1 -8 3 -8 10 0 6 -3 8 -6 5
-7 -7 -120 49 -142 70 -7 7 -18 13 -23 13 -5 0 -54 32 -109 71 -123 88 -256
225 -335 344 -33 50 -64 93 -70 97 -7 5 -7 8 0 8 7 0 7 3 0 8 -6 4 -24 34 -40
67 -17 33 -34 63 -38 66 -5 3 -8 8 -7 10 2 6 -10 41 -21 62 -14 27 -41 108
-46 142 -3 17 -8 32 -12 35 -4 3 -18 64 -32 135 -20 109 -24 159 -23 315 0
128 6 213 17 276 19 101 68 271 97 336 10 23 16 46 14 50 -3 4 0 8 5 8 6 0 11
6 11 13 0 14 40 96 56 114 7 7 20 33 30 57 11 25 22 46 27 46 4 0 7 6 7 14 0
7 9 25 21 40 11 14 18 26 14 26 -3 0 4 15 17 32 13 18 37 58 53 88 43 79 293
512 381 658 40 67 96 166 124 219 28 54 56 103 63 111 15 19 33 49 52 91 9 19
23 40 31 48 8 8 14 20 14 27 0 7 12 28 26 47 14 19 35 52 45 74 21 43 49 93
62 110 5 5 18 29 30 52 12 23 64 113 116 200 156 262 188 316 217 368 15 28
69 122 119 210 121 210 235 415 235 420 0 2 18 33 40 67 22 35 40 68 40 74 0
6 8 22 18 35 10 13 29 44 42 69 14 25 31 53 39 63 8 9 11 17 7 17 -4 0 0 7 8
16 9 8 16 22 16 30 0 8 5 14 11 14 5 0 7 5 4 10 -3 6 -1 10 4 10 6 0 11 6 11
14 0 8 6 21 13 28 23 24 504 871 527 928 8 19 22 42 32 51 10 9 15 19 11 23
-3 3 -1 6 6 6 7 0 9 5 6 10 -3 6 -1 10 5 10 6 0 9 4 6 9 -3 5 1 14 9 21 8 7
15 17 15 23 0 6 6 18 14 26 8 9 34 54 57 101 23 47 57 109 76 138 18 29 33 56
33 61 0 5 6 16 14 24 8 8 23 30 33 50 23 45 158 282 231 407 31 52 70 120 87
150 125 218 180 308 221 362 199 262 470 453 758 534 163 46 369 56 537 28z"/>
<path d="M5075 7691 c-15 -6 -27 -31 -43 -87 -25 -85 -76 -197 -104 -228 -10
-11 -18 -23 -18 -28 0 -4 -9 -18 -21 -30 -11 -13 -37 -41 -57 -63 -31 -32 -32
-35 -7 -15 l30 25 -23 -26 c-12 -14 -28 -26 -35 -26 -8 0 -35 -14 -61 -32 -39
-27 -148 -83 -166 -86 -24 -4 -50 -19 -50 -28 0 -8 -3 -8 -9 1 -6 11 -11 10
-25 -3 -9 -9 -16 -13 -16 -8 0 4 -5 0 -11 -10 -21 -36 -2 -54 89 -83 48 -15
89 -32 90 -36 2 -4 12 -8 22 -8 10 0 20 -3 22 -8 2 -4 26 -24 53 -44 28 -20
65 -52 84 -72 19 -19 39 -32 44 -29 6 3 7 2 4 -4 -4 -5 3 -19 13 -31 11 -12
20 -23 20 -25 0 -2 17 -35 38 -74 38 -68 60 -135 82 -246 10 -47 16 -60 36
-68 41 -15 59 4 88 92 77 233 176 370 345 481 42 28 103 57 145 69 82 24 116
43 116 65 0 16 -27 48 -42 50 -4 1 -10 3 -13 4 -3 1 -9 4 -15 5 -5 1 -12 4
-15 5 -3 1 -8 3 -12 5 -5 1 -16 5 -25 9 -9 4 -22 9 -30 10 -22 4 -120 56 -167
90 -48 34 -90 76 -145 146 -19 25 -41 52 -48 61 -7 9 -14 22 -16 30 -2 7 -8
17 -14 20 -5 3 -9 10 -9 15 0 5 -8 38 -18 74 -11 36 -22 80 -26 98 -5 23 -15
36 -32 43 -13 5 -25 9 -26 8 -1 0 -11 -4 -22 -8z"/>
<path d="M4166 6394 c-3 -8 -10 -12 -16 -9 -5 3 -11 -1 -11 -9 -3 -35 -28 -89
-73 -160 -66 -103 -173 -189 -277 -222 -67 -21 -83 -35 -76 -66 5 -18 21 -28
74 -46 37 -13 91 -38 118 -56 62 -41 156 -133 164 -161 1 -5 16 -34 32 -63 16
-29 23 -50 16 -46 -6 4 -4 -2 6 -13 13 -15 15 -22 6 -25 -8 -3 -7 -9 5 -20 9
-9 16 -22 16 -28 0 -6 11 -10 25 -8 22 3 31 16 62 88 32 74 83 160 125 210 37
43 180 130 215 130 7 0 13 4 13 9 0 5 8 7 18 4 10 -2 24 2 31 11 14 17 11 61
-4 61 -25 0 -115 41 -163 74 -29 20 -62 41 -73 47 -24 14 -93 103 -119 154
-10 20 -26 62 -35 94 -12 41 -21 56 -31 52 -8 -3 -14 -1 -14 4 0 16 -27 11
-34 -6z"/>
<path d="M9033 4978 c-5 -7 -15 -33 -22 -58 -18 -62 -66 -157 -102 -203 -17
-20 -27 -42 -23 -49 4 -6 3 -8 -2 -5 -6 3 -27 -10 -48 -29 -20 -19 -40 -34
-42 -34 -3 0 -24 -13 -47 -30 -23 -16 -66 -38 -94 -48 -29 -10 -50 -22 -46
-26 4 -4 0 -4 -9 -1 -10 4 -25 -2 -39 -16 -32 -32 -16 -49 72 -79 117 -40 195
-96 263 -189 39 -53 84 -157 93 -216 3 -22 10 -48 15 -57 11 -22 51 -23 68 -3
7 8 9 15 5 15 -4 0 -2 6 4 13 6 8 12 22 14 33 2 10 10 33 16 49 7 17 14 38 16
47 4 19 25 60 34 68 3 3 26 31 50 62 65 86 204 182 297 204 16 4 35 11 41 16
18 14 -1 44 -32 52 -14 4 -25 11 -25 16 0 5 -7 7 -15 4 -8 -4 -15 -2 -15 4 0
5 -26 22 -57 38 -68 35 -93 54 -156 118 -63 65 -91 114 -118 211 -27 94 -34
105 -64 105 -12 0 -27 -6 -32 -12z"/>
</g>
</svg>
